<svg xmlns="http://www.w3.org/2000/svg" xmlns:xlink="http://www.w3.org/1999/xlink" width="300" zoomAndPan="magnify" viewBox="0 0 224.87999 37.5" height="50" preserveAspectRatio="xMidYMid meet" version="1.0"><defs><g/></defs><path stroke-linecap="butt" transform="matrix(0.740132, 0, 0, 0.740132, 7.437363, 3.330593)" fill="none" stroke-linejoin="miter" d="M 7.056575 32.238611 C 2.734074 32.238611 0.570185 30.048333 0.570185 25.6625 L 0.596574 23.926111 L 5.83213 23.926111 L 5.863797 26.496389 C 5.863797 27.018889 5.964075 27.409444 6.159352 27.678611 C 6.359908 27.947778 6.68713 28.079722 7.146297 28.079722 C 7.842963 28.079722 8.191297 27.515 8.191297 26.380278 C 8.191297 25.541111 8.022408 24.886667 7.695186 24.406389 C 7.367963 23.926111 6.845463 23.419444 6.132963 22.881111 L 3.351574 20.727777 C 2.391019 19.988889 1.704908 19.228889 1.282685 18.4425 C 0.865741 17.656111 0.65463 16.5425 0.65463 15.106944 C 0.65463 13.988055 0.950185 13.038055 1.541297 12.251666 C 2.12713 11.465277 2.908241 10.874166 3.88463 10.473055 C 4.861019 10.071944 5.948241 9.876666 7.146297 9.876666 C 11.38963 9.876666 13.511297 11.987777 13.511297 16.21 L 13.511297 16.632222 L 8.101575 16.632222 L 8.101575 15.793055 C 8.101575 15.275833 8.01713 14.832499 7.848241 14.468333 C 7.679352 14.093611 7.394352 13.908888 6.993241 13.908888 C 6.63963 13.908888 6.365186 14.014444 6.175186 14.225555 C 5.985186 14.436666 5.890186 14.716388 5.890186 15.080555 C 5.890186 15.8775 6.201575 16.495 6.819075 16.933055 L 10.043797 19.292222 C 11.204908 20.147222 12.091575 21.081389 12.709075 22.089444 C 13.326575 23.092222 13.637964 24.364167 13.637964 25.9 C 13.637964 27.931944 13.057408 29.499445 11.896297 30.597222 C 10.745741 31.695 9.130741 32.238611 7.056575 32.238611 Z M 19.221853 32.238611 C 17.527686 32.238611 16.366575 31.679167 15.738519 30.555 C 15.110464 29.425556 14.799075 27.815833 14.799075 25.720555 C 14.799075 24.010555 15.020742 22.696389 15.469353 21.778055 C 15.917964 20.859722 16.540742 20.184166 17.337686 19.756666 C 18.134631 19.329166 19.353797 18.854166 20.984631 18.336944 L 22.420186 17.861944 L 22.420186 15.613611 C 22.420186 15.038333 22.304075 14.594999 22.071853 14.288888 C 21.844909 13.977499 21.575742 13.824444 21.259075 13.824444 C 20.974075 13.824444 20.731297 13.951111 20.520186 14.209722 C 20.309075 14.468333 20.20352 14.816666 20.20352 15.254722 L 20.20352 16.568888 L 15.126297 16.568888 L 15.126297 15.851111 C 15.126297 13.703055 15.627686 12.167222 16.635742 11.254166 C 17.643797 10.335833 19.285186 9.876666 21.554631 9.876666 C 23.364909 9.876666 24.837409 10.346388 25.972131 11.296388 C 27.112131 12.24111 27.682131 13.581666 27.682131 15.312777 L 27.682131 32.001111 L 22.48352 32.001111 L 22.48352 29.399167 C 22.219631 30.296389 21.802686 30.993056 21.232686 31.494445 C 20.667964 31.990556 19.997686 32.238611 19.221853 32.238611 Z M 21.285464 28.174722 C 21.686575 28.174722 21.966297 28.011111 22.135186 27.683889 C 22.304075 27.356667 22.38852 26.950278 22.38852 26.464722 L 22.38852 20.368889 C 21.612686 20.669722 21.042686 21.049722 20.673242 21.508889 C 20.303797 21.968055 20.119075 22.601389 20.119075 23.414166 L 20.119075 26.227222 C 20.119075 27.525556 20.509631 28.174722 21.285464 28.174722 Z M 29.677131 10.114166 L 35.002409 10.114166 L 35.002409 11.275277 C 35.757131 10.34111 36.807409 9.876666 38.147965 9.876666 C 39.842131 9.876666 41.019076 10.441388 41.689354 11.581388 C 42.354354 12.71611 42.686854 14.288888 42.686854 16.305 L 42.686854 24.406389 C 42.686854 26.121667 42.586576 27.520278 42.38602 28.6075 C 42.190743 29.689445 41.752687 30.570833 41.071854 31.241111 C 40.396298 31.906111 39.372409 32.238611 37.994909 32.238611 C 36.680742 32.238611 35.683242 31.869167 35.002409 31.130278 L 35.002409 36.365834 L 29.677131 36.365834 Z M 36.25852 28.174722 C 36.738798 28.174722 37.044909 27.958333 37.182131 27.520278 C 37.324631 27.076944 37.393242 26.433056 37.393242 25.599167 L 37.393242 16.305 C 37.393242 15.545 37.324631 14.969722 37.182131 14.568611 C 37.044909 14.167499 36.728242 13.966944 36.226854 13.966944 C 35.408798 13.966944 35.002409 14.726944 35.002409 16.241666 L 35.002409 25.836667 C 35.002409 26.580833 35.086853 27.150833 35.255742 27.5625 C 35.424631 27.968889 35.757131 28.174722 36.25852 28.174722 Z M 48.846021 32.238611 C 47.20991 32.238611 46.085743 31.753056 45.478798 30.771389 C 44.871854 29.795 44.565743 28.338333 44.565743 26.406667 L 44.565743 10.114166 L 49.827687 10.114166 L 49.827687 25.366944 C 49.827687 25.498889 49.827687 25.873611 49.827687 26.480556 C 49.827687 27.0875 49.922687 27.520278 50.112687 27.773611 C 50.302687 28.021667 50.598243 28.148333 50.999354 28.148333 C 51.53241 28.148333 51.870188 27.921389 52.012688 27.472778 C 52.155188 27.024167 52.223799 26.375 52.223799 25.541111 L 52.223799 25.366944 L 52.250188 10.114166 L 57.459354 10.114166 L 57.459354 32.001111 L 52.223799 32.001111 L 52.223799 29.673611 C 51.86491 30.586667 51.442688 31.241111 50.96241 31.642222 C 50.482132 32.043334 49.780187 32.238611 48.846021 32.238611 Z M 66.531855 32.001111 L 66.531855 6.166388 L 71.709355 6.166388 L 71.709355 17.650833 L 74.221577 10.114166 L 79.6313 10.114166 L 76.343244 19.619444 L 80.528522 32.001111 L 74.965744 32.001111 L 71.709355 21.683055 L 71.709355 32.001111 Z M 87.342133 32.238611 C 85.088522 32.238611 83.473522 31.621111 82.497133 30.386111 C 81.520744 29.151111 81.035189 27.303889 81.035189 24.855 L 81.035189 16.062222 C 81.035189 14.051388 81.610467 12.515555 82.7663 11.459999 C 83.922133 10.404444 85.537133 9.876666 87.6113 9.876666 C 91.817689 9.876666 93.918245 11.940277 93.918245 16.062222 L 93.918245 17.650833 C 93.918245 19.244722 93.902412 20.537777 93.860189 21.53 L 86.270745 21.53 L 86.270745 25.778611 C 86.270745 26.538611 86.344633 27.135 86.502967 27.5625 C 86.6613 27.99 87.004356 28.206389 87.526856 28.206389 C 87.922689 28.206389 88.207689 28.085 88.3713 27.8475 C 88.540189 27.61 88.640467 27.335556 88.672134 27.029444 C 88.698522 26.718056 88.714356 26.264167 88.714356 25.6625 L 88.714356 23.540833 L 93.918245 23.540833 L 93.918245 24.796944 C 93.918245 27.346111 93.427411 29.225 92.435189 30.428333 C 91.453523 31.636945 89.754078 32.238611 87.342133 32.238611 Z M 88.714356 18.933333 L 88.714356 16.125555 C 88.714356 14.547499 88.329078 13.755833 87.553245 13.755833 C 86.671856 13.755833 86.2338 14.547499 86.2338 16.125555 L 86.2338 18.933333 Z M 95.797134 10.114166 L 100.916578 10.114166 L 100.916578 12.658055 C 101.154078 11.71861 101.560467 11.016666 102.130467 10.562777 C 102.711023 10.10361 103.534356 9.876666 104.59519 9.876666 C 105.45019 9.876666 106.194356 10.066666 106.817134 10.457222 C 107.44519 10.847777 107.888523 11.380833 108.147134 12.056388 C 108.58519 11.296388 109.070745 10.747499 109.609079 10.399166 C 110.147412 10.050833 110.896857 9.876666 111.857412 9.876666 C 113.567412 9.876666 114.76019 10.399166 115.42519 11.444166 C 116.095468 12.489166 116.433246 14.009166 116.433246 16.004166 L 116.369912 32.001111 L 111.113246 32.001111 L 111.113246 15.909166 C 111.113246 14.499999 110.754357 13.792777 110.031301 13.792777 C 109.53519 13.792777 109.176301 14.035555 108.959912 14.526388 C 108.738245 15.011944 108.627412 15.5925 108.627412 16.278611 L 108.627412 32.001111 L 103.397134 32.001111 L 103.397134 15.909166 C 103.397134 15.291666 103.328523 14.795555 103.196579 14.420833 C 103.069912 14.040833 102.79019 13.850833 102.373245 13.850833 C 101.84019 13.850833 101.46019 14.119999 101.243801 14.647777 C 101.022134 15.175555 100.916578 15.803611 100.916578 16.537222 L 100.916578 32.001111 L 95.797134 32.001111 Z M 126.920191 32.238611 C 125.484635 32.238611 124.460746 31.383611 123.843246 29.673611 L 123.843246 32.001111 L 118.454635 32.001111 L 118.454635 6.166388 L 123.843246 6.166388 L 123.843246 11.159166 C 124.677135 10.304166 125.653524 9.876666 126.767135 9.876666 C 128.461302 9.876666 129.675191 10.378055 130.408802 11.38611 C 131.152969 12.394166 131.522413 13.845555 131.522413 15.735 L 131.522413 26.290556 C 131.522413 28.085 131.142413 29.520556 130.382413 30.613056 C 129.627691 31.700278 128.471857 32.238611 126.920191 32.238611 Z M 125.157413 28.174722 C 125.516302 28.174722 125.769635 28.058611 125.912135 27.831667 C 126.065191 27.604722 126.154913 27.314444 126.18658 26.960833 C 126.212968 26.6125 126.228802 26.068889 126.228802 25.335278 L 126.228802 16.21 C 126.228802 15.434166 126.160191 14.858888 126.017691 14.478888 C 125.880468 14.098888 125.584913 13.908888 125.125746 13.908888 C 124.624357 13.908888 124.286579 14.098888 124.101857 14.478888 C 123.927691 14.858888 123.843246 15.418333 123.843246 16.151944 L 123.843246 25.335278 C 123.843246 26.290556 123.917135 27.003056 124.075468 27.472778 C 124.233802 27.9425 124.597968 28.174722 125.157413 28.174722 Z M 137.407136 32.238611 C 135.712969 32.238611 134.551858 31.679167 133.923802 30.555 C 133.295746 29.425556 132.984358 27.815833 132.984358 25.720555 C 132.984358 24.010555 133.206024 22.696389 133.654635 21.778055 C 134.103247 20.859722 134.726024 20.184166 135.522969 19.756666 C 136.319913 19.329166 137.53908 18.854166 139.175191 18.336944 L 140.605469 17.861944 L 140.605469 15.613611 C 140.605469 15.038333 140.489358 14.594999 140.262413 14.288888 C 140.035469 13.977499 139.761025 13.824444 139.444358 13.824444 C 139.159358 13.824444 138.91658 13.951111 138.705469 14.209722 C 138.499636 14.468333 138.39408 14.816666 138.39408 15.254722 L 138.39408 16.568888 L 133.31158 16.568888 L 133.31158 15.851111 C 133.31158 13.703055 133.818247 12.167222 134.821024 11.254166 C 135.82908 10.335833 137.470469 9.876666 139.745191 9.876666 C 141.555469 9.876666 143.027969 10.346388 144.157414 11.296388 C 145.297414 12.24111 145.867414 13.581666 145.867414 15.312777 L 145.867414 32.001111 L 140.668802 32.001111 L 140.668802 29.399167 C 140.410191 30.296389 139.993247 30.993056 139.423247 31.494445 C 138.858524 31.990556 138.188247 32.238611 137.407136 32.238611 Z M 139.470747 28.174722 C 139.871858 28.174722 140.156858 28.011111 140.320469 27.683889 C 140.489358 27.356667 140.573802 26.950278 140.573802 26.464722 L 140.573802 20.368889 C 139.803247 20.669722 139.227969 21.049722 138.858524 21.508889 C 138.48908 21.968055 138.304358 22.601389 138.304358 23.414166 L 138.304358 26.227222 C 138.304358 27.525556 138.694913 28.174722 139.470747 28.174722 Z M 147.867692 10.114166 L 153.09797 10.114166 L 153.09797 12.895555 C 153.319636 11.998333 153.694358 11.269999 154.232692 10.715833 C 154.771025 10.156388 155.494081 9.876666 156.391303 9.876666 C 157.869081 9.876666 158.956303 10.330555 159.663525 11.238333 C 160.370748 12.14611 160.729637 13.433888 160.729637 15.106944 L 160.729637 32.001111 L 155.583803 32.001111 L 155.583803 15.64 C 155.583803 15.164999 155.488803 14.758611 155.298803 14.420833 C 155.108803 14.083055 154.813247 13.908888 154.412136 13.908888 C 153.879081 13.908888 153.52547 14.156944 153.356581 14.647777 C 153.187692 15.133333 153.09797 15.787777 153.09797 16.605833 L 153.09797 32.001111 L 147.867692 32.001111 Z M 168.672692 35.199445 C 167.121026 35.199445 165.896581 35.072778 165.009914 34.824723 C 164.123248 34.576667 163.252414 34.106945 162.392137 33.410278 L 164.191859 30.386111 C 165.463803 31.140833 166.73047 31.520834 167.986581 31.520834 C 168.804637 31.520834 169.422137 31.262222 169.839081 30.745 C 170.261304 30.2225 170.467137 29.515278 170.467137 28.618056 L 170.467137 27.425278 C 170.050192 28.924167 168.941859 29.673611 167.147415 29.673611 C 165.653803 29.673611 164.550748 29.161667 163.838248 28.148333 C 163.136303 27.129722 162.782692 25.773333 162.782692 24.079167 L 162.782692 15.851111 C 162.782692 13.919444 163.104637 12.441666 163.753803 11.412499 C 164.40297 10.38861 165.537692 9.876666 167.147415 9.876666 C 168.086859 9.876666 168.825748 10.108888 169.374637 10.573333 C 169.923526 11.043055 170.287692 11.708055 170.467137 12.568333 L 170.467137 10.114166 L 175.818804 10.114166 L 175.818804 28.290833 C 175.818804 30.745 175.248804 32.507778 174.108804 33.584445 C 172.979359 34.661111 171.163804 35.199445 168.672692 35.199445 Z M 169.242692 25.720555 C 170.060748 25.720555 170.467137 24.986944 170.467137 23.509167 L 170.467137 15.708611 C 170.467137 15.270555 170.351026 14.848333 170.108248 14.452499 C 169.870748 14.051388 169.575192 13.850833 169.211026 13.850833 C 168.757137 13.850833 168.445748 14.019722 168.287415 14.346944 C 168.123803 14.674166 168.044637 15.128055 168.044637 15.708611 L 168.044637 23.509167 C 168.044637 24.168889 168.123803 24.701944 168.287415 25.108333 C 168.445748 25.52 168.762415 25.720555 169.242692 25.720555 Z M 190.733804 35.199445 C 189.17686 35.199445 187.957693 35.072778 187.065749 34.824723 C 186.179082 34.576667 185.308249 34.106945 184.453249 33.410278 L 186.247693 30.386111 C 187.524915 31.140833 188.791582 31.520834 190.047693 31.520834 C 190.865749 31.520834 191.483249 31.262222 191.900193 30.745 C 192.317138 30.2225 192.528249 29.515278 192.528249 28.618056 L 192.528249 27.425278 C 192.111304 28.924167 191.002971 29.673611 189.208527 29.673611 C 187.709638 29.673611 186.61186 29.161667 185.89936 28.148333 C 185.192138 27.129722 184.838526 25.773333 184.838526 24.079167 L 184.838526 15.851111 C 184.838526 13.919444 185.165749 12.441666 185.809638 11.412499 C 186.464082 10.38861 187.593527 9.876666 189.208527 9.876666 C 190.142693 9.876666 190.88686 10.108888 191.430471 10.573333 C 191.984638 11.043055 192.348804 11.708055 192.528249 12.568333 L 192.528249 10.114166 L 197.879916 10.114166 L 197.879916 28.290833 C 197.879916 30.745 197.309916 32.507778 196.169916 33.584445 C 195.035193 34.661111 193.224916 35.199445 190.733804 35.199445 Z M 191.298527 25.720555 C 192.116582 25.720555 192.528249 24.986944 192.528249 23.509167 L 192.528249 15.708611 C 192.528249 15.270555 192.40686 14.848333 192.16936 14.452499 C 191.93186 14.051388 191.631027 13.850833 191.272138 13.850833 C 190.812971 13.850833 190.50686 14.019722 190.343249 14.346944 C 190.184916 14.674166 190.105749 15.128055 190.105749 15.708611 L 190.105749 23.509167 C 190.105749 24.168889 190.184916 24.701944 190.343249 25.108333 C 190.50686 25.52 190.823527 25.720555 191.298527 25.720555 Z M 206.039361 32.238611 C 203.785749 32.238611 202.170749 31.621111 201.189083 30.386111 C 200.217971 29.151111 199.732416 27.303889 199.732416 24.855 L 199.732416 16.062222 C 199.732416 14.051388 200.307694 12.515555 201.458249 11.459999 C 202.61936 10.404444 204.234361 9.876666 206.308527 9.876666 C 210.509639 9.876666 212.615472 11.940277 212.615472 16.062222 L 212.615472 17.650833 C 212.615472 19.244722 212.594361 20.537777 212.557416 21.53 L 204.962694 21.53 L 204.962694 25.778611 C 204.962694 26.538611 205.041861 27.135 205.200194 27.5625 C 205.358527 27.99 205.701583 28.206389 206.218805 28.206389 C 206.619916 28.206389 206.899638 28.085 207.068527 27.8475 C 207.237416 27.61 207.337694 27.335556 207.364083 27.029444 C 207.39575 26.718056 207.411583 26.264167 207.411583 25.6625 L 207.411583 23.540833 L 212.615472 23.540833 L 212.615472 24.796944 C 212.615472 27.346111 212.119361 29.225 211.132416 30.428333 C 210.15075 31.636945 208.451305 32.238611 206.039361 32.238611 Z M 207.411583 18.933333 L 207.411583 16.125555 C 207.411583 14.547499 207.021027 13.755833 206.250472 13.755833 C 205.369083 13.755833 204.925749 14.547499 204.925749 16.125555 L 204.925749 18.933333 Z M 214.494361 32.001111 L 214.494361 6.166388 L 219.814361 6.166388 L 219.814361 32.001111 Z M 225.883806 32.238611 C 224.189639 32.238611 223.028528 31.679167 222.400472 30.555 C 221.772417 29.425556 221.461028 27.815833 221.461028 25.720555 C 221.461028 24.010555 221.682695 22.696389 222.131306 21.778055 C 222.579917 20.859722 223.202695 20.184166 223.999639 19.756666 C 224.796584 19.329166 226.01575 18.854166 227.651862 18.336944 L 229.082139 17.861944 L 229.082139 15.613611 C 229.082139 15.038333 228.966028 14.594999 228.739084 14.288888 C 228.506862 13.977499 228.237695 13.824444 227.921028 13.824444 C 227.636028 13.824444 227.39325 13.951111 227.182139 14.209722 C 226.971028 14.468333 226.87075 14.816666 226.87075 15.254722 L 226.87075 16.568888 L 221.78825 16.568888 L 221.78825 15.851111 C 221.78825 13.703055 222.289639 12.167222 223.297695 11.254166 C 224.30575 10.335833 225.947139 9.876666 228.221862 9.876666 C 230.032139 9.876666 231.499362 10.346388 232.634084 11.296388 C 233.774084 12.24111 234.344084 13.581666 234.344084 15.312777 L 234.344084 32.001111 L 229.145473 32.001111 L 229.145473 29.399167 C 228.881584 30.296389 228.469917 30.993056 227.899917 31.494445 C 227.335195 31.990556 226.659639 32.238611 225.883806 32.238611 Z M 227.947417 28.174722 C 228.348528 28.174722 228.62825 28.011111 228.797139 27.683889 C 228.966028 27.356667 229.050473 26.950278 229.050473 26.464722 L 229.050473 20.368889 C 228.279917 20.669722 227.704639 21.049722 227.335195 21.508889 C 226.96575 21.968055 226.781028 22.601389 226.781028 23.414166 L 226.781028 26.227222 C 226.781028 27.525556 227.171584 28.174722 227.947417 28.174722 Z M 242.234362 35.199445 C 240.682695 35.199445 239.458251 35.072778 238.566306 34.824723 C 237.684917 34.576667 236.814084 34.106945 235.953806 33.410278 L 237.753529 30.386111 C 239.025473 31.140833 240.29214 31.520834 241.548251 31.520834 C 242.366307 31.520834 242.983807 31.262222 243.400751 30.745 C 243.817696 30.2225 244.028807 29.515278 244.028807 28.618056 L 244.028807 27.425278 C 243.611862 28.924167 242.503529 29.673611 240.709084 29.673611 C 239.215473 29.673611 238.112418 29.161667 237.399917 28.148333 C 236.692695 27.129722 236.344362 25.773333 236.344362 24.079167 L 236.344362 15.851111 C 236.344362 13.919444 236.666306 12.441666 237.315473 11.412499 C 237.96464 10.38861 239.094084 9.876666 240.709084 9.876666 C 241.648529 9.876666 242.387418 10.108888 242.936307 10.573333 C 243.485196 11.043055 243.849362 11.708055 244.028807 12.568333 L 244.028807 10.114166 L 249.380474 10.114166 L 249.380474 28.290833 C 249.380474 30.745 248.810474 32.507778 247.670473 33.584445 C 246.535751 34.661111 244.725473 35.199445 242.234362 35.199445 Z M 242.804362 25.720555 C 243.622418 25.720555 244.028807 24.986944 244.028807 23.509167 L 244.028807 15.708611 C 244.028807 15.270555 243.907418 14.848333 243.669918 14.452499 C 243.432418 14.051388 243.131584 13.850833 242.772695 13.850833 C 242.313529 13.850833 242.007418 14.019722 241.843807 14.346944 C 241.685473 14.674166 241.606307 15.128055 241.606307 15.708611 L 241.606307 23.509167 C 241.606307 24.168889 241.685473 24.701944 241.843807 25.108333 C 242.007418 25.52 242.324084 25.720555 242.804362 25.720555 Z M 255.386585 32.238611 C 253.692418 32.238611 252.531307 31.679167 251.903251 30.555 C 251.275196 29.425556 250.963807 27.815833 250.963807 25.720555 C 250.963807 24.010555 251.185474 22.696389 251.634085 21.778055 C 252.082696 20.859722 252.705474 20.184166 253.502418 19.756666 C 254.299363 19.329166 255.518529 18.854166 257.149363 18.336944 L 258.584918 17.861944 L 258.584918 15.613611 C 258.584918 15.038333 258.468807 14.594999 258.241863 14.288888 C 258.009641 13.977499 257.740474 13.824444 257.423807 13.824444 C 257.138807 13.824444 256.896029 13.951111 256.684918 14.209722 C 256.473807 14.468333 256.368252 14.816666 256.368252 15.254722 L 256.368252 16.568888 L 251.291029 16.568888 L 251.291029 15.851111 C 251.291029 13.703055 251.792418 12.167222 252.800474 11.254166 C 253.808529 10.335833 255.449918 9.876666 257.719363 9.876666 C 259.529641 9.876666 261.002141 10.346388 262.136863 11.296388 C 263.276863 12.24111 263.846863 13.581666 263.846863 15.312777 L 263.846863 32.001111 L 258.648252 32.001111 L 258.648252 29.399167 C 258.384363 30.296389 257.967418 30.993056 257.402696 31.494445 C 256.837974 31.990556 256.162418 32.238611 255.386585 32.238611 Z M 257.450196 28.174722 C 257.851307 28.174722 258.131029 28.011111 258.299918 27.683889 C 258.468807 27.356667 258.553252 26.950278 258.553252 26.464722 L 258.553252 20.368889 C 257.777418 20.669722 257.207418 21.049722 256.837974 21.508889 C 256.468529 21.968055 256.283807 22.601389 256.283807 23.414166 L 256.283807 26.227222 C 256.283807 27.525556 256.674363 28.174722 257.450196 28.174722 Z M 265.841863 6.166388 L 271.230474 6.166388 L 271.230474 12.267499 C 271.784641 10.67361 272.850752 9.876666 274.428808 9.876666 C 275.901308 9.876666 277.020197 10.346388 277.769641 11.280555 C 278.529641 12.219999 278.909641 13.502499 278.909641 15.138611 L 278.909641 32.001111 L 273.684641 32.001111 L 273.684641 15.465833 C 273.684641 14.990833 273.573808 14.600277 273.346863 14.304722 C 273.130475 14.003888 272.80853 13.850833 272.391586 13.850833 C 272.037974 13.850833 271.752974 14.009166 271.547141 14.320555 C 271.33603 14.626666 271.230474 15.001388 271.230474 15.434166 L 271.230474 32.001111 L 265.841863 32.001111 Z M 265.841863 6.166388 " stroke="#ffffff" stroke-width="0.411236" stroke-opacity="1" stroke-miterlimit="4"/><g fill="#ffffff" fill-opacity="1"><g transform="translate(7.437363, 27.014802)"><g><path d="M 5.21875 0.171875 C 2.019531 0.171875 0.421875 -1.445312 0.421875 -4.6875 L 0.4375 -5.96875 L 4.3125 -5.96875 L 4.34375 -4.078125 C 4.34375 -3.691406 4.414062 -3.394531 4.5625 -3.1875 C 4.707031 -2.988281 4.945312 -2.890625 5.28125 -2.890625 C 5.800781 -2.890625 6.0625 -3.3125 6.0625 -4.15625 C 6.0625 -4.78125 5.9375 -5.269531 5.6875 -5.625 C 5.445312 -5.976562 5.0625 -6.351562 4.53125 -6.75 L 2.484375 -8.34375 C 1.773438 -8.882812 1.265625 -9.445312 0.953125 -10.03125 C 0.640625 -10.613281 0.484375 -11.4375 0.484375 -12.5 C 0.484375 -13.320312 0.703125 -14.023438 1.140625 -14.609375 C 1.578125 -15.191406 2.15625 -15.628906 2.875 -15.921875 C 3.59375 -16.222656 4.394531 -16.375 5.28125 -16.375 C 8.425781 -16.375 10 -14.8125 10 -11.6875 L 10 -11.375 L 6 -11.375 L 6 -11.984375 C 6 -12.367188 5.9375 -12.695312 5.8125 -12.96875 C 5.6875 -13.25 5.472656 -13.390625 5.171875 -13.390625 C 4.910156 -13.390625 4.707031 -13.3125 4.5625 -13.15625 C 4.425781 -13 4.359375 -12.785156 4.359375 -12.515625 C 4.359375 -11.929688 4.585938 -11.476562 5.046875 -11.15625 L 7.4375 -9.40625 C 8.289062 -8.769531 8.945312 -8.078125 9.40625 -7.328125 C 9.863281 -6.585938 10.09375 -5.648438 10.09375 -4.515625 C 10.09375 -3.003906 9.660156 -1.84375 8.796875 -1.03125 C 7.941406 -0.226562 6.75 0.171875 5.21875 0.171875 Z M 5.21875 0.171875 "/></g></g></g><g fill="#ffffff" fill-opacity="1"><g transform="translate(17.945749, 27.014802)"><g><path d="M 3.71875 0.171875 C 2.46875 0.171875 1.609375 -0.242188 1.140625 -1.078125 C 0.671875 -1.910156 0.4375 -3.097656 0.4375 -4.640625 C 0.4375 -5.910156 0.601562 -6.882812 0.9375 -7.5625 C 1.269531 -8.238281 1.726562 -8.734375 2.3125 -9.046875 C 2.90625 -9.367188 3.804688 -9.722656 5.015625 -10.109375 L 6.078125 -10.46875 L 6.078125 -12.125 C 6.078125 -12.550781 5.992188 -12.878906 5.828125 -13.109375 C 5.660156 -13.335938 5.457031 -13.453125 5.21875 -13.453125 C 5.007812 -13.453125 4.828125 -13.351562 4.671875 -13.15625 C 4.523438 -12.96875 4.453125 -12.710938 4.453125 -12.390625 L 4.453125 -11.421875 L 0.6875 -11.421875 L 0.6875 -11.953125 C 0.6875 -13.546875 1.054688 -14.679688 1.796875 -15.359375 C 2.546875 -16.035156 3.757812 -16.375 5.4375 -16.375 C 6.78125 -16.375 7.875 -16.019531 8.71875 -15.3125 C 9.5625 -14.613281 9.984375 -13.625 9.984375 -12.34375 L 9.984375 0 L 6.125 0 L 6.125 -1.921875 C 5.9375 -1.253906 5.628906 -0.738281 5.203125 -0.375 C 4.785156 -0.0078125 4.289062 0.171875 3.71875 0.171875 Z M 5.25 -2.828125 C 5.539062 -2.828125 5.75 -2.945312 5.875 -3.1875 C 6 -3.4375 6.0625 -3.738281 6.0625 -4.09375 L 6.0625 -8.609375 C 5.488281 -8.390625 5.0625 -8.109375 4.78125 -7.765625 C 4.507812 -7.421875 4.375 -6.945312 4.375 -6.34375 L 4.375 -4.265625 C 4.375 -3.304688 4.664062 -2.828125 5.25 -2.828125 Z M 5.25 -2.828125 "/></g></g></g><g fill="#ffffff" fill-opacity="1"><g transform="translate(28.631127, 27.014802)"><g><path d="M 0.78125 -16.203125 L 4.71875 -16.203125 L 4.71875 -15.328125 C 5.269531 -16.023438 6.039062 -16.375 7.03125 -16.375 C 8.289062 -16.375 9.164062 -15.953125 9.65625 -15.109375 C 10.15625 -14.265625 10.40625 -13.097656 10.40625 -11.609375 L 10.40625 -5.625 C 10.40625 -4.351562 10.328125 -3.316406 10.171875 -2.515625 C 10.023438 -1.710938 9.703125 -1.0625 9.203125 -0.5625 C 8.703125 -0.0703125 7.941406 0.171875 6.921875 0.171875 C 5.953125 0.171875 5.21875 -0.0976562 4.71875 -0.640625 L 4.71875 3.234375 L 0.78125 3.234375 Z M 5.640625 -2.828125 C 5.992188 -2.828125 6.222656 -2.988281 6.328125 -3.3125 C 6.429688 -3.644531 6.484375 -4.117188 6.484375 -4.734375 L 6.484375 -11.609375 C 6.484375 -12.171875 6.429688 -12.597656 6.328125 -12.890625 C 6.222656 -13.191406 5.988281 -13.34375 5.625 -13.34375 C 5.019531 -13.34375 4.71875 -12.78125 4.71875 -11.65625 L 4.71875 -4.5625 C 4.71875 -4.007812 4.78125 -3.582031 4.90625 -3.28125 C 5.03125 -2.976562 5.273438 -2.828125 5.640625 -2.828125 Z M 5.640625 -2.828125 "/></g></g></g><g fill="#ffffff" fill-opacity="1"><g transform="translate(39.692591, 27.014802)"><g><path d="M 3.890625 0.171875 C 2.679688 0.171875 1.851562 -0.1875 1.40625 -0.90625 C 0.957031 -1.625 0.734375 -2.703125 0.734375 -4.140625 L 0.734375 -16.203125 L 4.625 -16.203125 L 4.625 -4.90625 C 4.625 -4.800781 4.625 -4.523438 4.625 -4.078125 C 4.625 -3.628906 4.691406 -3.3125 4.828125 -3.125 C 4.972656 -2.945312 5.191406 -2.859375 5.484375 -2.859375 C 5.878906 -2.859375 6.128906 -3.019531 6.234375 -3.34375 C 6.335938 -3.675781 6.390625 -4.15625 6.390625 -4.78125 L 6.390625 -4.90625 L 6.421875 -16.203125 L 10.265625 -16.203125 L 10.265625 0 L 6.390625 0 L 6.390625 -1.71875 C 6.128906 -1.039062 5.820312 -0.554688 5.46875 -0.265625 C 5.113281 0.0234375 4.585938 0.171875 3.890625 0.171875 Z M 3.890625 0.171875 "/></g></g></g><g fill="#ffffff" fill-opacity="1"><g transform="translate(50.73193, 27.014802)"><g/></g></g><g fill="#ffffff" fill-opacity="1"><g transform="translate(55.908695, 27.014802)"><g><path d="M 0.78125 0 L 0.78125 -19.109375 L 4.609375 -19.109375 L 4.609375 -10.625 L 6.453125 -16.203125 L 10.46875 -16.203125 L 8.03125 -9.15625 L 11.125 0 L 7.015625 0 L 4.609375 -7.640625 L 4.609375 0 Z M 0.78125 0 "/></g></g></g><g fill="#ffffff" fill-opacity="1"><g transform="translate(66.771054, 27.014802)"><g><path d="M 5.3125 0.171875 C 3.644531 0.171875 2.445312 -0.28125 1.71875 -1.1875 C 1 -2.101562 0.640625 -3.46875 0.640625 -5.28125 L 0.640625 -11.796875 C 0.640625 -13.285156 1.066406 -14.421875 1.921875 -15.203125 C 2.773438 -15.984375 3.972656 -16.375 5.515625 -16.375 C 8.617188 -16.375 10.171875 -14.847656 10.171875 -11.796875 L 10.171875 -10.625 C 10.171875 -9.4375 10.160156 -8.476562 10.140625 -7.75 L 4.515625 -7.75 L 4.515625 -4.609375 C 4.515625 -4.046875 4.570312 -3.601562 4.6875 -3.28125 C 4.8125 -2.96875 5.0625 -2.8125 5.4375 -2.8125 C 5.738281 -2.8125 5.953125 -2.898438 6.078125 -3.078125 C 6.203125 -3.253906 6.273438 -3.457031 6.296875 -3.6875 C 6.316406 -3.914062 6.328125 -4.25 6.328125 -4.6875 L 6.328125 -6.265625 L 10.171875 -6.265625 L 10.171875 -5.328125 C 10.171875 -3.441406 9.804688 -2.050781 9.078125 -1.15625 C 8.347656 -0.269531 7.09375 0.171875 5.3125 0.171875 Z M 6.328125 -9.671875 L 6.328125 -11.75 C 6.328125 -12.914062 6.039062 -13.5 5.46875 -13.5 C 4.8125 -13.5 4.484375 -12.914062 4.484375 -11.75 L 4.484375 -9.671875 Z M 6.328125 -9.671875 "/></g></g></g><g fill="#ffffff" fill-opacity="1"><g transform="translate(77.567041, 27.014802)"><g><path d="M 0.78125 -16.203125 L 4.5625 -16.203125 L 4.5625 -14.3125 C 4.738281 -15.007812 5.039062 -15.523438 5.46875 -15.859375 C 5.894531 -16.203125 6.5 -16.375 7.28125 -16.375 C 7.914062 -16.375 8.460938 -16.226562 8.921875 -15.9375 C 9.390625 -15.65625 9.71875 -15.257812 9.90625 -14.75 C 10.238281 -15.3125 10.601562 -15.722656 11 -15.984375 C 11.394531 -16.242188 11.945312 -16.375 12.65625 -16.375 C 13.925781 -16.375 14.804688 -15.984375 15.296875 -15.203125 C 15.796875 -14.429688 16.046875 -13.3125 16.046875 -11.84375 L 16 0 L 12.109375 0 L 12.109375 -11.90625 C 12.109375 -12.945312 11.84375 -13.46875 11.3125 -13.46875 C 10.9375 -13.46875 10.664062 -13.285156 10.5 -12.921875 C 10.34375 -12.566406 10.265625 -12.140625 10.265625 -11.640625 L 10.265625 0 L 6.390625 0 L 6.390625 -11.90625 C 6.390625 -12.363281 6.34375 -12.734375 6.25 -13.015625 C 6.15625 -13.296875 5.953125 -13.4375 5.640625 -13.4375 C 5.242188 -13.4375 4.960938 -13.238281 4.796875 -12.84375 C 4.640625 -12.445312 4.5625 -11.976562 4.5625 -11.4375 L 4.5625 0 L 0.78125 0 Z M 0.78125 -16.203125 "/></g></g></g><g fill="#ffffff" fill-opacity="1"><g transform="translate(94.336222, 27.014802)"><g><path d="M 7.03125 0.171875 C 5.96875 0.171875 5.207031 -0.457031 4.75 -1.71875 L 4.75 0 L 0.78125 0 L 0.78125 -19.109375 L 4.75 -19.109375 L 4.75 -15.421875 C 5.375 -16.054688 6.097656 -16.375 6.921875 -16.375 C 8.179688 -16.375 9.082031 -16 9.625 -15.25 C 10.164062 -14.507812 10.4375 -13.4375 10.4375 -12.03125 L 10.4375 -4.21875 C 10.4375 -2.894531 10.15625 -1.832031 9.59375 -1.03125 C 9.039062 -0.226562 8.1875 0.171875 7.03125 0.171875 Z M 5.734375 -2.828125 C 5.992188 -2.828125 6.175781 -2.910156 6.28125 -3.078125 C 6.394531 -3.253906 6.460938 -3.46875 6.484375 -3.71875 C 6.515625 -3.976562 6.53125 -4.382812 6.53125 -4.9375 L 6.53125 -11.6875 C 6.53125 -12.257812 6.476562 -12.6875 6.375 -12.96875 C 6.269531 -13.25 6.046875 -13.390625 5.703125 -13.390625 C 5.335938 -13.390625 5.085938 -13.25 4.953125 -12.96875 C 4.816406 -12.6875 4.75 -12.269531 4.75 -11.71875 L 4.75 -4.9375 C 4.75 -4.226562 4.804688 -3.695312 4.921875 -3.34375 C 5.046875 -3 5.316406 -2.828125 5.734375 -2.828125 Z M 5.734375 -2.828125 "/></g></g></g><g fill="#ffffff" fill-opacity="1"><g transform="translate(105.419809, 27.014802)"><g><path d="M 3.71875 0.171875 C 2.46875 0.171875 1.609375 -0.242188 1.140625 -1.078125 C 0.671875 -1.910156 0.4375 -3.097656 0.4375 -4.640625 C 0.4375 -5.910156 0.601562 -6.882812 0.9375 -7.5625 C 1.269531 -8.238281 1.726562 -8.734375 2.3125 -9.046875 C 2.90625 -9.367188 3.804688 -9.722656 5.015625 -10.109375 L 6.078125 -10.46875 L 6.078125 -12.125 C 6.078125 -12.550781 5.992188 -12.878906 5.828125 -13.109375 C 5.660156 -13.335938 5.457031 -13.453125 5.21875 -13.453125 C 5.007812 -13.453125 4.828125 -13.351562 4.671875 -13.15625 C 4.523438 -12.96875 4.453125 -12.710938 4.453125 -12.390625 L 4.453125 -11.421875 L 0.6875 -11.421875 L 0.6875 -11.953125 C 0.6875 -13.546875 1.054688 -14.679688 1.796875 -15.359375 C 2.546875 -16.035156 3.757812 -16.375 5.4375 -16.375 C 6.78125 -16.375 7.875 -16.019531 8.71875 -15.3125 C 9.5625 -14.613281 9.984375 -13.625 9.984375 -12.34375 L 9.984375 0 L 6.125 0 L 6.125 -1.921875 C 5.9375 -1.253906 5.628906 -0.738281 5.203125 -0.375 C 4.785156 -0.0078125 4.289062 0.171875 3.71875 0.171875 Z M 5.25 -2.828125 C 5.539062 -2.828125 5.75 -2.945312 5.875 -3.1875 C 6 -3.4375 6.0625 -3.738281 6.0625 -4.09375 L 6.0625 -8.609375 C 5.488281 -8.390625 5.0625 -8.109375 4.78125 -7.765625 C 4.507812 -7.421875 4.375 -6.945312 4.375 -6.34375 L 4.375 -4.265625 C 4.375 -3.304688 4.664062 -2.828125 5.25 -2.828125 Z M 5.25 -2.828125 "/></g></g></g><g fill="#ffffff" fill-opacity="1"><g transform="translate(116.105187, 27.014802)"><g><path d="M 0.78125 -16.203125 L 4.640625 -16.203125 L 4.640625 -14.140625 C 4.804688 -14.804688 5.085938 -15.34375 5.484375 -15.75 C 5.878906 -16.164062 6.410156 -16.375 7.078125 -16.375 C 8.171875 -16.375 8.976562 -16.035156 9.5 -15.359375 C 10.019531 -14.691406 10.28125 -13.738281 10.28125 -12.5 L 10.28125 0 L 6.484375 0 L 6.484375 -12.109375 C 6.484375 -12.460938 6.410156 -12.765625 6.265625 -13.015625 C 6.128906 -13.265625 5.914062 -13.390625 5.625 -13.390625 C 5.21875 -13.390625 4.953125 -13.207031 4.828125 -12.84375 C 4.703125 -12.476562 4.640625 -11.992188 4.640625 -11.390625 L 4.640625 0 L 0.78125 0 Z M 0.78125 -16.203125 "/></g></g></g><g fill="#ffffff" fill-opacity="1"><g transform="translate(127.144527, 27.014802)"><g><path d="M 5.140625 2.375 C 3.984375 2.375 3.078125 2.28125 2.421875 2.09375 C 1.765625 1.90625 1.117188 1.554688 0.484375 1.046875 L 1.8125 -1.1875 C 2.757812 -0.632812 3.695312 -0.359375 4.625 -0.359375 C 5.226562 -0.359375 5.679688 -0.546875 5.984375 -0.921875 C 6.296875 -1.304688 6.453125 -1.832031 6.453125 -2.5 L 6.453125 -3.390625 C 6.148438 -2.273438 5.332031 -1.71875 4 -1.71875 C 2.894531 -1.71875 2.082031 -2.09375 1.5625 -2.84375 C 1.039062 -3.601562 0.78125 -4.609375 0.78125 -5.859375 L 0.78125 -11.953125 C 0.78125 -13.378906 1.019531 -14.472656 1.5 -15.234375 C 1.976562 -15.992188 2.8125 -16.375 4 -16.375 C 4.695312 -16.375 5.25 -16.195312 5.65625 -15.84375 C 6.0625 -15.5 6.328125 -15.007812 6.453125 -14.375 L 6.453125 -16.203125 L 10.421875 -16.203125 L 10.421875 -2.75 C 10.421875 -0.925781 10 0.378906 9.15625 1.171875 C 8.320312 1.972656 6.984375 2.375 5.140625 2.375 Z M 5.546875 -4.640625 C 6.148438 -4.640625 6.453125 -5.1875 6.453125 -6.28125 L 6.453125 -12.0625 C 6.453125 -12.382812 6.363281 -12.691406 6.1875 -12.984375 C 6.007812 -13.285156 5.789062 -13.4375 5.53125 -13.4375 C 5.1875 -13.4375 4.957031 -13.3125 4.84375 -13.0625 C 4.726562 -12.820312 4.671875 -12.488281 4.671875 -12.0625 L 4.671875 -6.28125 C 4.671875 -5.789062 4.726562 -5.394531 4.84375 -5.09375 C 4.957031 -4.789062 5.191406 -4.640625 5.546875 -4.640625 Z M 5.546875 -4.640625 "/></g></g></g><g fill="#ffffff" fill-opacity="1"><g transform="translate(138.294486, 27.014802)"><g/></g></g><g fill="#ffffff" fill-opacity="1"><g transform="translate(143.471251, 27.014802)"><g><path d="M 5.140625 2.375 C 3.984375 2.375 3.078125 2.28125 2.421875 2.09375 C 1.765625 1.90625 1.117188 1.554688 0.484375 1.046875 L 1.8125 -1.1875 C 2.757812 -0.632812 3.695312 -0.359375 4.625 -0.359375 C 5.226562 -0.359375 5.679688 -0.546875 5.984375 -0.921875 C 6.296875 -1.304688 6.453125 -1.832031 6.453125 -2.5 L 6.453125 -3.390625 C 6.148438 -2.273438 5.332031 -1.71875 4 -1.71875 C 2.894531 -1.71875 2.082031 -2.09375 1.5625 -2.84375 C 1.039062 -3.601562 0.78125 -4.609375 0.78125 -5.859375 L 0.78125 -11.953125 C 0.78125 -13.378906 1.019531 -14.472656 1.5 -15.234375 C 1.976562 -15.992188 2.8125 -16.375 4 -16.375 C 4.695312 -16.375 5.25 -16.195312 5.65625 -15.84375 C 6.0625 -15.5 6.328125 -15.007812 6.453125 -14.375 L 6.453125 -16.203125 L 10.421875 -16.203125 L 10.421875 -2.75 C 10.421875 -0.925781 10 0.378906 9.15625 1.171875 C 8.320312 1.972656 6.984375 2.375 5.140625 2.375 Z M 5.546875 -4.640625 C 6.148438 -4.640625 6.453125 -5.1875 6.453125 -6.28125 L 6.453125 -12.0625 C 6.453125 -12.382812 6.363281 -12.691406 6.1875 -12.984375 C 6.007812 -13.285156 5.789062 -13.4375 5.53125 -13.4375 C 5.1875 -13.4375 4.957031 -13.3125 4.84375 -13.0625 C 4.726562 -12.820312 4.671875 -12.488281 4.671875 -12.0625 L 4.671875 -6.28125 C 4.671875 -5.789062 4.726562 -5.394531 4.84375 -5.09375 C 4.957031 -4.789062 5.191406 -4.640625 5.546875 -4.640625 Z M 5.546875 -4.640625 "/></g></g></g><g fill="#ffffff" fill-opacity="1"><g transform="translate(154.62121, 27.014802)"><g><path d="M 5.3125 0.171875 C 3.644531 0.171875 2.445312 -0.28125 1.71875 -1.1875 C 1 -2.101562 0.640625 -3.46875 0.640625 -5.28125 L 0.640625 -11.796875 C 0.640625 -13.285156 1.066406 -14.421875 1.921875 -15.203125 C 2.773438 -15.984375 3.972656 -16.375 5.515625 -16.375 C 8.617188 -16.375 10.171875 -14.847656 10.171875 -11.796875 L 10.171875 -10.625 C 10.171875 -9.4375 10.160156 -8.476562 10.140625 -7.75 L 4.515625 -7.75 L 4.515625 -4.609375 C 4.515625 -4.046875 4.570312 -3.601562 4.6875 -3.28125 C 4.8125 -2.96875 5.0625 -2.8125 5.4375 -2.8125 C 5.738281 -2.8125 5.953125 -2.898438 6.078125 -3.078125 C 6.203125 -3.253906 6.273438 -3.457031 6.296875 -3.6875 C 6.316406 -3.914062 6.328125 -4.25 6.328125 -4.6875 L 6.328125 -6.265625 L 10.171875 -6.265625 L 10.171875 -5.328125 C 10.171875 -3.441406 9.804688 -2.050781 9.078125 -1.15625 C 8.347656 -0.269531 7.09375 0.171875 5.3125 0.171875 Z M 6.328125 -9.671875 L 6.328125 -11.75 C 6.328125 -12.914062 6.039062 -13.5 5.46875 -13.5 C 4.8125 -13.5 4.484375 -12.914062 4.484375 -11.75 L 4.484375 -9.671875 Z M 6.328125 -9.671875 "/></g></g></g><g fill="#ffffff" fill-opacity="1"><g transform="translate(165.417197, 27.014802)"><g><path d="M 0.78125 0 L 0.78125 -19.109375 L 4.71875 -19.109375 L 4.71875 0 Z M 0.78125 0 "/></g></g></g><g fill="#ffffff" fill-opacity="1"><g transform="translate(170.903687, 27.014802)"><g><path d="M 3.71875 0.171875 C 2.46875 0.171875 1.609375 -0.242188 1.140625 -1.078125 C 0.671875 -1.910156 0.4375 -3.097656 0.4375 -4.640625 C 0.4375 -5.910156 0.601562 -6.882812 0.9375 -7.5625 C 1.269531 -8.238281 1.726562 -8.734375 2.3125 -9.046875 C 2.90625 -9.367188 3.804688 -9.722656 5.015625 -10.109375 L 6.078125 -10.46875 L 6.078125 -12.125 C 6.078125 -12.550781 5.992188 -12.878906 5.828125 -13.109375 C 5.660156 -13.335938 5.457031 -13.453125 5.21875 -13.453125 C 5.007812 -13.453125 4.828125 -13.351562 4.671875 -13.15625 C 4.523438 -12.96875 4.453125 -12.710938 4.453125 -12.390625 L 4.453125 -11.421875 L 0.6875 -11.421875 L 0.6875 -11.953125 C 0.6875 -13.546875 1.054688 -14.679688 1.796875 -15.359375 C 2.546875 -16.035156 3.757812 -16.375 5.4375 -16.375 C 6.78125 -16.375 7.875 -16.019531 8.71875 -15.3125 C 9.5625 -14.613281 9.984375 -13.625 9.984375 -12.34375 L 9.984375 0 L 6.125 0 L 6.125 -1.921875 C 5.9375 -1.253906 5.628906 -0.738281 5.203125 -0.375 C 4.785156 -0.0078125 4.289062 0.171875 3.71875 0.171875 Z M 5.25 -2.828125 C 5.539062 -2.828125 5.75 -2.945312 5.875 -3.1875 C 6 -3.4375 6.0625 -3.738281 6.0625 -4.09375 L 6.0625 -8.609375 C 5.488281 -8.390625 5.0625 -8.109375 4.78125 -7.765625 C 4.507812 -7.421875 4.375 -6.945312 4.375 -6.34375 L 4.375 -4.265625 C 4.375 -3.304688 4.664062 -2.828125 5.25 -2.828125 Z M 5.25 -2.828125 "/></g></g></g><g fill="#ffffff" fill-opacity="1"><g transform="translate(181.589065, 27.014802)"><g><path d="M 5.140625 2.375 C 3.984375 2.375 3.078125 2.28125 2.421875 2.09375 C 1.765625 1.90625 1.117188 1.554688 0.484375 1.046875 L 1.8125 -1.1875 C 2.757812 -0.632812 3.695312 -0.359375 4.625 -0.359375 C 5.226562 -0.359375 5.679688 -0.546875 5.984375 -0.921875 C 6.296875 -1.304688 6.453125 -1.832031 6.453125 -2.5 L 6.453125 -3.390625 C 6.148438 -2.273438 5.332031 -1.71875 4 -1.71875 C 2.894531 -1.71875 2.082031 -2.09375 1.5625 -2.84375 C 1.039062 -3.601562 0.78125 -4.609375 0.78125 -5.859375 L 0.78125 -11.953125 C 0.78125 -13.378906 1.019531 -14.472656 1.5 -15.234375 C 1.976562 -15.992188 2.8125 -16.375 4 -16.375 C 4.695312 -16.375 5.25 -16.195312 5.65625 -15.84375 C 6.0625 -15.5 6.328125 -15.007812 6.453125 -14.375 L 6.453125 -16.203125 L 10.421875 -16.203125 L 10.421875 -2.75 C 10.421875 -0.925781 10 0.378906 9.15625 1.171875 C 8.320312 1.972656 6.984375 2.375 5.140625 2.375 Z M 5.546875 -4.640625 C 6.148438 -4.640625 6.453125 -5.1875 6.453125 -6.28125 L 6.453125 -12.0625 C 6.453125 -12.382812 6.363281 -12.691406 6.1875 -12.984375 C 6.007812 -13.285156 5.789062 -13.4375 5.53125 -13.4375 C 5.1875 -13.4375 4.957031 -13.3125 4.84375 -13.0625 C 4.726562 -12.820312 4.671875 -12.488281 4.671875 -12.0625 L 4.671875 -6.28125 C 4.671875 -5.789062 4.726562 -5.394531 4.84375 -5.09375 C 4.957031 -4.789062 5.191406 -4.640625 5.546875 -4.640625 Z M 5.546875 -4.640625 "/></g></g></g><g fill="#ffffff" fill-opacity="1"><g transform="translate(192.739024, 27.014802)"><g><path d="M 3.71875 0.171875 C 2.46875 0.171875 1.609375 -0.242188 1.140625 -1.078125 C 0.671875 -1.910156 0.4375 -3.097656 0.4375 -4.640625 C 0.4375 -5.910156 0.601562 -6.882812 0.9375 -7.5625 C 1.269531 -8.238281 1.726562 -8.734375 2.3125 -9.046875 C 2.90625 -9.367188 3.804688 -9.722656 5.015625 -10.109375 L 6.078125 -10.46875 L 6.078125 -12.125 C 6.078125 -12.550781 5.992188 -12.878906 5.828125 -13.109375 C 5.660156 -13.335938 5.457031 -13.453125 5.21875 -13.453125 C 5.007812 -13.453125 4.828125 -13.351562 4.671875 -13.15625 C 4.523438 -12.96875 4.453125 -12.710938 4.453125 -12.390625 L 4.453125 -11.421875 L 0.6875 -11.421875 L 0.6875 -11.953125 C 0.6875 -13.546875 1.054688 -14.679688 1.796875 -15.359375 C 2.546875 -16.035156 3.757812 -16.375 5.4375 -16.375 C 6.78125 -16.375 7.875 -16.019531 8.71875 -15.3125 C 9.5625 -14.613281 9.984375 -13.625 9.984375 -12.34375 L 9.984375 0 L 6.125 0 L 6.125 -1.921875 C 5.9375 -1.253906 5.628906 -0.738281 5.203125 -0.375 C 4.785156 -0.0078125 4.289062 0.171875 3.71875 0.171875 Z M 5.25 -2.828125 C 5.539062 -2.828125 5.75 -2.945312 5.875 -3.1875 C 6 -3.4375 6.0625 -3.738281 6.0625 -4.09375 L 6.0625 -8.609375 C 5.488281 -8.390625 5.0625 -8.109375 4.78125 -7.765625 C 4.507812 -7.421875 4.375 -6.945312 4.375 -6.34375 L 4.375 -4.265625 C 4.375 -3.304688 4.664062 -2.828125 5.25 -2.828125 Z M 5.25 -2.828125 "/></g></g></g><g fill="#ffffff" fill-opacity="1"><g transform="translate(203.424414, 27.014802)"><g><path d="M 0.78125 -19.109375 L 4.75 -19.109375 L 4.75 -14.609375 C 5.164062 -15.785156 5.957031 -16.375 7.125 -16.375 C 8.21875 -16.375 9.039062 -16.023438 9.59375 -15.328125 C 10.15625 -14.640625 10.4375 -13.691406 10.4375 -12.484375 L 10.4375 0 L 6.578125 0 L 6.578125 -12.234375 C 6.578125 -12.585938 6.492188 -12.875 6.328125 -13.09375 C 6.160156 -13.320312 5.925781 -13.4375 5.625 -13.4375 C 5.351562 -13.4375 5.140625 -13.320312 4.984375 -13.09375 C 4.828125 -12.863281 4.75 -12.582031 4.75 -12.25 L 4.75 0 L 0.78125 0 Z M 0.78125 -19.109375 "/></g></g></g></svg>